<?xml version="1.0" standalone="yes"?>
<svg xmlns="http://www.w3.org/2000/svg" width="2200" height="1200">
<path style="fill:#155929; stroke:none;" d="M1088 53.4381C1044.96 58.2822 1003.42 59.6893 961 70.6388C849.466 99.4298 746.225 167.029 674.478 257C507.672 466.174 518.278 777.348 703.078 972C774.518 1047.25 862.625 1095.47 961 1125.35C1024.75 1144.7 1095.16 1147.84 1161 1140.68C1423.94 1112.08 1632.61 887.888 1645.92 625C1658.22 382.085 1500.95 156.648 1271 80C1215.35 61.4513 1146.93 46.8058 1088 53.4381M1069 69.3202C1130.85 62.886 1197.93 74.0209 1257 91.9624C1318.34 110.594 1376.9 140.928 1427 181C1648.68 358.298 1699.54 691.55 1522.56 919C1481.6 971.637 1432.01 1016.22 1375 1050.92C1307.08 1092.26 1230.08 1117.82 1151 1125.79C1086.57 1132.29 1022.55 1124.8 960 1108.87C900.964 1093.84 843.232 1065.19 794 1029.56C735.018 986.882 684.314 934.46 646.481 872C501.658 632.902 575.345 316.464 804 159.043C883.785 104.114 973.895 79.2134 1069 69.3202M1075 85.4381C965.789 97.7286 866.072 127.009 779 197.624C717.098 247.826 666.487 311.355 633.337 384C536.174 596.929 598.27 860.149 785 1003.1C838.37 1043.96 899.254 1074.66 964 1092.72C1025.65 1109.91 1091.32 1115.8 1155 1108.68C1406.79 1080.52 1601.17 870.799 1613.92 619C1626.04 379.69 1458.46 161.524 1229 101.103C1180.71 88.3878 1124.98 79.8131 1075 85.4381M1081 113.32C1138.47 107.342 1202.79 119.952 1257 138.328C1313.41 157.45 1367 186.962 1412.32 225.768C1610.89 395.787 1643.15 698.019 1478.98 903C1442.87 948.094 1397.47 985.926 1348 1015.6C1289.93 1050.43 1222.5 1073.98 1155 1080.79C1078.72 1088.48 1002.02 1079.57 930 1052.56C709.265 969.749 575.85 730.853 625.222 500C636.994 444.956 657.128 392.016 686.697 344C718.89 291.724 761.63 244.691 811 208.176C892.905 147.597 981.497 123.671 1081 113.32M756 823C767.339 789.53 749.756 754.162 738.443 724C729.927 701.294 724.568 676.909 720.758 653C704.886 553.419 734.557 450.651 793.443 370C890.558 236.991 1068.87 182.329 1224 235.113C1282.09 254.876 1332.88 289.839 1376 333C1407.46 364.484 1433.7 403.212 1451.56 444C1480.76 510.703 1492.08 588.012 1479.37 660C1472.79 697.248 1453.39 730.099 1445.5 766C1441.73 783.173 1445 804.414 1445 822C1471.42 798.15 1486.87 745.35 1496.43 712C1533.78 581.636 1503.16 436.861 1415.7 333C1245.02 130.298 919.338 143.484 765.288 359C719.901 422.496 695.346 496.574 689.864 574C683.812 659.469 706.271 752.466 756 823M1080 839C1109.59 836.908 1118.46 795.777 1093 781.045C1069.51 767.451 1043.52 787.105 1042.16 812C1040.92 834.607 1058.99 853.671 1079 860.922C1127.22 878.4 1166.85 837.229 1161.68 790C1160.25 776.937 1147.09 745.973 1152.59 734.344C1156.26 726.584 1176.09 719.967 1182.99 713.763C1206.31 692.81 1214.16 660.951 1207.56 631C1201.19 602.124 1179.87 579.582 1151 572.387C1143.78 570.589 1120.52 573.56 1116.12 569.138C1109.47 562.441 1107.68 537.369 1106.23 528C1104.2 514.846 1133.77 490.369 1140.97 478C1165.06 436.615 1168.62 389.027 1153.33 344C1148.75 330.52 1139.75 306.964 1125 301.862C1105.94 295.27 1089.06 319.951 1082.01 334C1067.4 363.148 1063.39 396.831 1067.44 429C1069.16 442.624 1078.97 465.054 1076.47 478C1075.21 484.538 1066.48 490.523 1062 495C1049.72 507.285 1037.45 519.536 1026.44 533C986.748 581.53 974.147 654.257 1020.14 704C1039.32 724.75 1067.43 739.45 1096 740.922C1103.56 741.311 1132.32 736.057 1134.87 743.11C1142.86 765.164 1150.77 800.959 1140.11 823C1130.54 842.784 1097.75 858.183 1080 839M1092 465C1085.5 434.471 1085 401.125 1100.34 373C1105.18 364.12 1115.65 347.428 1128 350.97C1142.03 354.994 1142.46 374.45 1140.93 386C1137.08 415.258 1115.32 447.578 1092 465M1179 390C1192.86 387.65 1205.79 382.143 1220 381.136C1253.3 378.779 1282.91 388.25 1315 394.989C1325.92 397.283 1353.05 396.872 1361.18 404.182C1365.33 407.912 1363 420.868 1363 426L1363 490L1363 718L1363 776C1363 780.641 1365.11 792.448 1361.74 796.035C1359.26 798.671 1352.05 795.908 1349 795.438C1336.72 793.547 1324.39 792.002 1312 791.136C1278.18 788.772 1243.41 791.931 1211 801.958C1201.44 804.917 1186.83 807.508 1179.49 814.755C1174.88 819.312 1172.81 830.793 1171 837C1225.45 820.062 1269.29 802.621 1328 810.861C1337.86 812.245 1374.76 824.883 1379.72 813.871C1388.85 793.552 1381 753.323 1381 731C1381 662.968 1380 594.977 1380 527L1380 459C1380 453.11 1377.38 439.882 1385.07 437.986C1394.84 435.578 1396.99 444.64 1397 452L1397 510L1397 754L1397 819C1397 823.305 1399.31 837.978 1394.5 840.035C1386.86 843.3 1367.19 834.803 1359 833.202C1332.52 828.027 1304.01 824.248 1277 826.136C1244.12 828.435 1211.04 833.992 1181 848.279C1156.05 860.143 1132.87 881.673 1104 881.992C1073.38 882.331 1052.98 864.616 1027 851.283C1003.08 839.005 975.73 831.03 949 828.212C912.486 824.364 876.033 826.415 840 833.6C833.807 834.835 808.103 844.432 804.822 837.708C801.668 831.247 804 819.101 804 812L804 750L804 528L804 456C804 447.954 804.495 434.204 816.852 438.421C823.597 440.723 821 454.46 821 460L821 528L821 733L821 790C821 796.923 818.823 808.335 821.822 814.675C826.368 824.287 865.874 811.802 875 810.58C932.93 802.828 977.803 819.195 1031 838C1029.51 831.964 1028.27 820.399 1024.2 815.755C1017.44 808.054 1000.5 804.945 991 802.146C958.592 792.599 924.791 788.774 891 791.136C878.285 792.025 865.608 793.496 853 795.438C849.73 795.942 841.87 799.003 839.26 796.098C833.29 789.454 838 760.938 838 752L838 625L838 463C838 449.982 831.753 415.138 839.26 404.604C844.687 396.989 878.472 396.672 888 394.56C927.739 385.753 965.254 375.166 1006 385.262C1021.89 389.199 1034.94 398.579 1050 404C1050 376.972 1029.97 371.979 1005 366.827C958.912 357.318 917.844 370.238 873 379.2C859.273 381.943 838.375 380.515 826.107 386.803C814.334 392.839 826.839 410.518 819.178 418.178C807.256 430.101 779.924 407.913 773.76 433C765.844 465.224 773 507.769 773 541L773 771L773 849C773 858.85 770.63 872.061 778.285 879.715C787.149 888.579 805.549 885 817 885L918 885C951.753 885 995.272 877.587 1028 885.524C1038.13 887.98 1046.52 898.126 1056 902.635C1072.16 910.324 1089.48 911.041 1107 910.999C1134.99 910.933 1148.81 892.298 1173 885.586C1201.28 877.74 1241.57 885 1271 885L1386 885C1397.91 885 1418.47 889.12 1425.75 876.951C1431.39 867.533 1428 849.659 1428 839L1428 748L1428 523L1428 458C1428 449.402 1430.23 437.053 1426.83 429.021C1418.95 410.363 1394.52 427.387 1382.5 418.858C1374.44 413.139 1384.45 395.844 1377.4 388.586C1369.23 380.185 1340.49 381.657 1329 379.561C1291.83 372.784 1256.53 359.104 1218 363.323C1209.68 364.234 1182.9 365.432 1178.48 373.563C1176.4 377.4 1178.98 385.598 1179 390M1091 537C1092.29 546.106 1101.68 568.358 1097.52 576.496C1094.25 582.87 1081.39 587.805 1076.04 593.079C1059.22 609.66 1051.35 633.852 1056.58 657C1060.06 672.424 1071.14 686.506 1085 694.037C1088.7 696.046 1098.42 700.771 1101.97 696.181C1105.23 691.974 1085.86 677.576 1083.39 673C1071.67 651.278 1087.27 626.218 1108 618C1115.15 642.743 1118.99 668.843 1124.56 694C1125.81 699.64 1132.25 715.114 1128.66 720.197C1125.33 724.91 1110.11 724.232 1105 723.782C1081.81 721.742 1059.45 714.658 1043.23 696.981C1005.44 655.827 1028.2 597.036 1062.04 562C1070.05 553.703 1080.2 541.319 1091 537M1146 716C1143.59 690.482 1135.14 665.22 1130.56 640C1129.7 635.229 1123.71 619.076 1127.3 615.262C1135.34 606.717 1160.83 625.345 1165.59 631.008C1186.77 656.162 1179.94 704.775 1146 716M826 902C847.335 930.019 888.048 950.772 919 966.25C1029.47 1021.49 1164.79 1024.78 1276 969.25C1309 952.772 1352.3 932.106 1375 902C1362.21 902 1345.3 899.076 1333 902.664C1308.39 909.843 1283.77 934.326 1260 945.723C1217.02 966.329 1165.94 980.957 1118 981C1062.39 981.05 1009.82 974.554 958 952.971C938.003 944.643 918.301 934.519 900 922.928C890.228 916.74 879.994 906.519 869 902.854C856.767 898.776 838.861 902 826 902z"/>
</svg>
